<svg id="visual" viewBox="0 0 1920 1080" width="1920" height="1080" xmlns="http://www.w3.org/2000/svg" xmlns:xlink="http://www.w3.org/1999/xlink" version="1.1"><rect x="0" y="0" width="1920" height="1080" fill="#001220"></rect><path d="M0 695L45.7 692.2C91.3 689.3 182.7 683.7 274.2 687.5C365.7 691.3 457.3 704.7 548.8 704.8C640.3 705 731.7 692 823 686.7C914.3 681.3 1005.7 683.7 1097 693.8C1188.3 704 1279.7 722 1371.2 727.8C1462.7 733.7 1554.3 727.3 1645.8 719.2C1737.3 711 1828.7 701 1874.3 696L1920 691L1920 1081L1874.3 1081C1828.7 1081 1737.3 1081 1645.8 1081C1554.3 1081 1462.7 1081 1371.2 1081C1279.7 1081 1188.3 1081 1097 1081C1005.7 1081 914.3 1081 823 1081C731.7 1081 640.3 1081 548.8 1081C457.3 1081 365.7 1081 274.2 1081C182.7 1081 91.3 1081 45.7 1081L0 1081Z" fill="#fa7268"></path><path d="M0 755L45.7 750.8C91.3 746.7 182.7 738.3 274.2 756.2C365.7 774 457.3 818 548.8 838.5C640.3 859 731.7 856 823 831.7C914.3 807.3 1005.7 761.7 1097 760.2C1188.3 758.7 1279.7 801.3 1371.2 808.5C1462.7 815.7 1554.3 787.3 1645.8 774.2C1737.3 761 1828.7 763 1874.3 764L1920 765L1920 1081L1874.3 1081C1828.7 1081 1737.3 1081 1645.8 1081C1554.3 1081 1462.7 1081 1371.2 1081C1279.7 1081 1188.3 1081 1097 1081C1005.7 1081 914.3 1081 823 1081C731.7 1081 640.3 1081 548.8 1081C457.3 1081 365.7 1081 274.2 1081C182.7 1081 91.3 1081 45.7 1081L0 1081Z" fill="#e85c63"></path><path d="M0 917L45.7 900C91.3 883 182.7 849 274.2 849.2C365.7 849.3 457.3 883.7 548.8 889.5C640.3 895.3 731.7 872.7 823 855C914.3 837.3 1005.7 824.7 1097 816.7C1188.3 808.7 1279.7 805.3 1371.2 817.3C1462.7 829.3 1554.3 856.7 1645.8 867.3C1737.3 878 1828.7 872 1874.3 869L1920 866L1920 1081L1874.3 1081C1828.7 1081 1737.3 1081 1645.8 1081C1554.3 1081 1462.7 1081 1371.2 1081C1279.7 1081 1188.3 1081 1097 1081C1005.7 1081 914.3 1081 823 1081C731.7 1081 640.3 1081 548.8 1081C457.3 1081 365.7 1081 274.2 1081C182.7 1081 91.3 1081 45.7 1081L0 1081Z" fill="#d5475f"></path><path d="M0 958L45.7 955.8C91.3 953.7 182.7 949.3 274.2 952.2C365.7 955 457.3 965 548.8 959C640.3 953 731.7 931 823 919C914.3 907 1005.7 905 1097 909.3C1188.3 913.7 1279.7 924.3 1371.2 924.7C1462.7 925 1554.3 915 1645.8 917.5C1737.3 920 1828.7 935 1874.3 942.5L1920 950L1920 1081L1874.3 1081C1828.7 1081 1737.3 1081 1645.8 1081C1554.3 1081 1462.7 1081 1371.2 1081C1279.7 1081 1188.3 1081 1097 1081C1005.7 1081 914.3 1081 823 1081C731.7 1081 640.3 1081 548.8 1081C457.3 1081 365.7 1081 274.2 1081C182.7 1081 91.3 1081 45.7 1081L0 1081Z" fill="#c1315a"></path><path d="M0 1001L45.7 1004.5C91.3 1008 182.7 1015 274.2 1018.2C365.7 1021.3 457.3 1020.7 548.8 1010.2C640.3 999.7 731.7 979.3 823 976.7C914.3 974 1005.7 989 1097 993.3C1188.3 997.7 1279.7 991.3 1371.2 993.5C1462.7 995.7 1554.3 1006.3 1645.8 1012.5C1737.3 1018.7 1828.7 1020.3 1874.3 1021.2L1920 1022L1920 1081L1874.3 1081C1828.7 1081 1737.3 1081 1645.8 1081C1554.3 1081 1462.7 1081 1371.2 1081C1279.7 1081 1188.3 1081 1097 1081C1005.7 1081 914.3 1081 823 1081C731.7 1081 640.3 1081 548.8 1081C457.3 1081 365.7 1081 274.2 1081C182.7 1081 91.3 1081 45.7 1081L0 1081Z" fill="#ad1856"></path></svg>