<svg id="visual" viewBox="0 0 960 540" width="960" height="540" xmlns="http://www.w3.org/2000/svg" xmlns:xlink="http://www.w3.org/1999/xlink" version="1.1"><rect x="0" y="0" width="960" height="540" fill="#001220"></rect><path d="M0 347L22.8 345.7C45.7 344.3 91.3 341.7 137 343.5C182.7 345.3 228.3 351.7 274 351.7C319.7 351.7 365.3 345.3 411.2 342.7C457 340 503 341 548.8 346C594.7 351 640.3 360 686 363C731.7 366 777.3 363 823 359C868.7 355 914.3 350 937.2 347.5L960 345L960 541L937.2 541C914.3 541 868.7 541 823 541C777.3 541 731.7 541 686 541C640.3 541 594.7 541 548.8 541C503 541 457 541 411.2 541C365.3 541 319.7 541 274 541C228.3 541 182.7 541 137 541C91.3 541 45.7 541 22.8 541L0 541Z" fill="#fa7268"></path><path d="M0 377L22.8 374.8C45.7 372.7 91.3 368.3 137 377.2C182.7 386 228.3 408 274 418.3C319.7 428.7 365.3 427.3 411.2 415.3C457 403.3 503 380.7 548.8 379.8C594.7 379 640.3 400 686 403.5C731.7 407 777.3 393 823 386.5C868.7 380 914.3 381 937.2 381.5L960 382L960 541L937.2 541C914.3 541 868.7 541 823 541C777.3 541 731.7 541 686 541C640.3 541 594.7 541 548.8 541C503 541 457 541 411.2 541C365.3 541 319.7 541 274 541C228.3 541 182.7 541 137 541C91.3 541 45.7 541 22.8 541L0 541Z" fill="#e85c63"></path><path d="M0 458L22.8 449.5C45.7 441 91.3 424 137 424C182.7 424 228.3 441 274 443.8C319.7 446.7 365.3 435.3 411.2 426.5C457 417.7 503 411.3 548.8 407.5C594.7 403.7 640.3 402.3 686 408.3C731.7 414.3 777.3 427.7 823 432.8C868.7 438 914.3 435 937.2 433.5L960 432L960 541L937.2 541C914.3 541 868.7 541 823 541C777.3 541 731.7 541 686 541C640.3 541 594.7 541 548.8 541C503 541 457 541 411.2 541C365.3 541 319.7 541 274 541C228.3 541 182.7 541 137 541C91.3 541 45.7 541 22.8 541L0 541Z" fill="#d5475f"></path><path d="M0 479L22.8 477.8C45.7 476.7 91.3 474.3 137 475.7C182.7 477 228.3 482 274 479C319.7 476 365.3 465 411.2 459C457 453 503 452 548.8 454.2C594.7 456.3 640.3 461.7 686 461.8C731.7 462 777.3 457 823 458.3C868.7 459.7 914.3 467.3 937.2 471.2L960 475L960 541L937.2 541C914.3 541 868.7 541 823 541C777.3 541 731.7 541 686 541C640.3 541 594.7 541 548.8 541C503 541 457 541 411.2 541C365.3 541 319.7 541 274 541C228.3 541 182.7 541 137 541C91.3 541 45.7 541 22.8 541L0 541Z" fill="#c1315a"></path><path d="M0 500L22.8 501.8C45.7 503.7 91.3 507.3 137 508.8C182.7 510.3 228.3 509.7 274 504.3C319.7 499 365.3 489 411.2 487.8C457 486.7 503 494.3 548.8 496.5C594.7 498.7 640.3 495.3 686 496.3C731.7 497.3 777.3 502.7 823 505.8C868.7 509 914.3 510 937.2 510.5L960 511L960 541L937.2 541C914.3 541 868.7 541 823 541C777.3 541 731.7 541 686 541C640.3 541 594.7 541 548.8 541C503 541 457 541 411.2 541C365.3 541 319.7 541 274 541C228.3 541 182.7 541 137 541C91.3 541 45.7 541 22.8 541L0 541Z" fill="#ad1856"></path></svg>