<svg id="visual" viewBox="0 0 3840 2160" width="3840" height="2160" xmlns="http://www.w3.org/2000/svg" xmlns:xlink="http://www.w3.org/1999/xlink" version="1.1"><rect x="0" y="0" width="3840" height="2160" fill="#001220"></rect><path d="M0 1392L91.5 1386.3C183 1380.7 366 1369.3 548.8 1376.7C731.7 1384 914.3 1410 1097.2 1410.2C1280 1410.3 1463 1384.7 1645.8 1374.2C1828.7 1363.7 2011.3 1368.3 2194.2 1388.5C2377 1408.7 2560 1444.3 2742.8 1456C2925.7 1467.7 3108.3 1455.3 3291.2 1439.2C3474 1423 3657 1403 3748.5 1393L3840 1383L3840 2161L3748.5 2161C3657 2161 3474 2161 3291.2 2161C3108.3 2161 2925.7 2161 2742.8 2161C2560 2161 2377 2161 2194.2 2161C2011.3 2161 1828.7 2161 1645.8 2161C1463 2161 1280 2161 1097.2 2161C914.3 2161 731.7 2161 548.8 2161C366 2161 183 2161 91.5 2161L0 2161Z" fill="#fa7268"></path><path d="M0 1512L91.5 1503.5C183 1495 366 1478 548.8 1513.3C731.7 1548.7 914.3 1636.3 1097.2 1677.3C1280 1718.3 1463 1712.7 1645.8 1664.2C1828.7 1615.7 2011.3 1524.3 2194.2 1521.3C2377 1518.3 2560 1603.7 2742.8 1618.2C2925.7 1632.7 3108.3 1576.3 3291.2 1550C3474 1523.7 3657 1527.3 3748.5 1529.2L3840 1531L3840 2161L3748.5 2161C3657 2161 3474 2161 3291.2 2161C3108.3 2161 2925.7 2161 2742.8 2161C2560 2161 2377 2161 2194.2 2161C2011.3 2161 1828.7 2161 1645.8 2161C1463 2161 1280 2161 1097.2 2161C914.3 2161 731.7 2161 548.8 2161C366 2161 183 2161 91.5 2161L0 2161Z" fill="#e85c63"></path><path d="M0 1835L91.5 1801C183 1767 366 1699 548.8 1699.2C731.7 1699.3 914.3 1767.7 1097.2 1779.2C1280 1790.7 1463 1745.3 1645.8 1710.2C1828.7 1675 2011.3 1650 2194.2 1634.2C2377 1618.3 2560 1611.7 2742.8 1635.7C2925.7 1659.7 3108.3 1714.3 3291.2 1735.7C3474 1757 3657 1745 3748.5 1739L3840 1733L3840 2161L3748.5 2161C3657 2161 3474 2161 3291.2 2161C3108.3 2161 2925.7 2161 2742.8 2161C2560 2161 2377 2161 2194.2 2161C2011.3 2161 1828.7 2161 1645.8 2161C1463 2161 1280 2161 1097.2 2161C914.3 2161 731.7 2161 548.8 2161C366 2161 183 2161 91.5 2161L0 2161Z" fill="#d5475f"></path><path d="M0 1918L91.5 1913.5C183 1909 366 1900 548.8 1905.5C731.7 1911 914.3 1931 1097.2 1919C1280 1907 1463 1863 1645.8 1838.8C1828.7 1814.7 2011.3 1810.3 2194.2 1819C2377 1827.7 2560 1849.3 2742.8 1850.2C2925.7 1851 3108.3 1831 3291.2 1836C3474 1841 3657 1871 3748.5 1886L3840 1901L3840 2161L3748.5 2161C3657 2161 3474 2161 3291.2 2161C3108.3 2161 2925.7 2161 2742.8 2161C2560 2161 2377 2161 2194.2 2161C2011.3 2161 1828.7 2161 1645.8 2161C1463 2161 1280 2161 1097.2 2161C914.3 2161 731.7 2161 548.8 2161C366 2161 183 2161 91.5 2161L0 2161Z" fill="#c1315a"></path><path d="M0 2003L91.5 2010C183 2017 366 2031 548.8 2037.3C731.7 2043.7 914.3 2042.3 1097.2 2021.3C1280 2000.3 1463 1959.7 1645.8 1954.5C1828.7 1949.3 2011.3 1979.7 2194.2 1988.2C2377 1996.7 2560 1983.3 2742.8 1987.5C2925.7 1991.7 3108.3 2013.3 3291.2 2026C3474 2038.7 3657 2042.3 3748.5 2044.2L3840 2046L3840 2161L3748.5 2161C3657 2161 3474 2161 3291.2 2161C3108.3 2161 2925.7 2161 2742.8 2161C2560 2161 2377 2161 2194.2 2161C2011.3 2161 1828.7 2161 1645.8 2161C1463 2161 1280 2161 1097.2 2161C914.3 2161 731.7 2161 548.8 2161C366 2161 183 2161 91.5 2161L0 2161Z" fill="#ad1856"></path></svg>